<svg width="180" height="180" viewBox="0 0 180 180" fill="none" xmlns="http://www.w3.org/2000/svg">
  <style>
    @media (prefers-color-scheme: light) {
      .background { fill: #10b981; }
      .foreground { fill: white; }
    }
    @media (prefers-color-scheme: dark) {
      .background { fill: #059669; }
      .foreground { fill: white; }
    }
  </style>
  <rect class="background" width="180" height="180" rx="37" />
  <!-- Letra C -->
  <path class="foreground" d="M 45 50 C 45 40, 55 30, 65 30 L 75 30 C 85 30, 95 40, 95 50 L 95 60 C 95 70, 85 80, 75 80 L 65 80 C 55 80, 45 70, 45 60 Z" 
        fill-rule="evenodd" />
  <!-- Letra M -->
  <path class="foreground" d="M 105 30 L 105 80 L 115 80 L 115 50 L 125 30 L 135 30 L 135 80 L 145 80 L 145 30 L 135 30 L 125 50 L 115 50 L 105 30 Z" 
        fill-rule="evenodd" />
  <!-- Flecha de conexión representando mapping -->
  <path class="foreground" d="M 95 55 L 100 55 L 100 50 L 105 55 L 100 60 L 100 55 Z" 
        fill-rule="evenodd" opacity="0.8" />
</svg>
